<svg width="419.3299560546875px" height="88.42501220703124px" xmlns="http://www.w3.org/2000/svg" viewBox="40.33502197265625 30.787493896484378 419.3299560546875 88.42501220703124" style="background: none;" preserveAspectRatio="xMidYMid"><defs><linearGradient id="editing-outline-gradient" x1="-0.5" x2="1.5" y1="0.5" y2="0.5"><stop offset="0" stop-color="#689cc5"></stop><stop offset="1" stop-color="#5e6fa3"></stop></linearGradient><filter id="editing-outline" x="-100%" y="-100%" width="300%" height="300%"><feMorphology in="SourceGraphic" operator="dilate" radius="3" result="outline"></feMorphology><feComposite operator="out" in="outline" in2="SourceAlpha"></feComposite></filter></defs><g filter="url(#editing-outline)"><g transform="translate(102.4068694114685, 95.85812377929688)"><path d="M5.53-29.84L5.53-29.84Q5.57-30.08 5.66-30.18L5.66-30.18L5.66-30.18Q5.76-30.27 7.64-30.45L7.64-30.45L7.64-30.45Q9.51-30.63 12.78-30.63L12.78-30.63L12.78-30.63Q16.05-30.63 17.81-28.74L17.81-28.74L17.81-28.74Q19.57-26.86 19.57-23.57L19.57-23.57L19.57-23.57Q19.57-17.38 18.18-9.32L18.18-9.32L18.18-9.32Q17.44-5.04 15.78-2.95L15.78-2.95L15.78-2.95Q14.26-1.04 11.02-0.43L11.02-0.43L11.02-0.43Q9.55-0.18 7.44-0.10L7.44-0.10L2.58 0.08L2.58 0.08Q2.15 0.06 2.15-0.29L2.15-0.29L5.53-29.84ZM10-26.07L10-26.07L7.62-4.80L7.62-4.80Q10.53-5.06 11.65-5.94L11.65-5.94L11.65-5.94Q12.77-6.82 13.22-9.28L13.22-9.28L13.22-9.28Q13.67-11.74 14.11-16.00L14.11-16.00L14.11-16.00Q14.55-20.25 14.55-22.97L14.55-22.97L14.55-22.97Q14.55-24.57 13.77-25.35L13.77-25.35L13.77-25.35Q12.99-26.13 11.65-26.13L11.65-26.13L11.65-26.13Q10.31-26.13 10-26.07ZM27.97-25.74L27.97-25.74L27.97-25.74Q26.76-25.74 26.04-26.50L26.04-26.50L26.04-26.50Q25.31-27.27 25.31-28.47L25.31-28.47L25.31-28.47Q25.31-29.67 26.28-30.62L26.28-30.62L26.28-30.62Q27.25-31.56 28.46-31.56L28.46-31.56L28.46-31.56Q29.67-31.56 30.42-30.80L30.42-30.80L30.42-30.80Q31.17-30.04 31.17-28.84L31.17-28.84L31.17-28.84Q31.17-27.64 30.18-26.69L30.18-26.69L30.18-26.69Q29.18-25.74 27.97-25.74ZM30.14-23.11L30.14-23.11L27.60-0.59L27.60-0.59Q27.56-0.31 27.46-0.20L27.46-0.20L27.46-0.20Q27.36-0.08 27.09-0.06L27.09-0.06L23.16 0.08L23.16 0.08Q22.73 0.04 22.73-0.29L22.73-0.29L25.31-23.01L25.31-23.01Q25.39-23.44 25.80-23.48L25.80-23.48L29.61-23.61L29.61-23.61Q30.14-23.57 30.14-23.11ZM38.91-23.11L40.43-6.39L44.90-23.01L44.90-23.01Q45.02-23.46 45.43-23.48L45.43-23.48L49.53-23.61L49.53-23.61Q50.02-23.57 50.02-23.11L50.02-23.11L42.07-0.59L42.07-0.59Q41.89-0.10 41.56-0.06L41.56-0.06L37.56 0.08L37.56 0.08Q37.19 0.06 37.13-0.29L37.13-0.29L34.08-23.01L34.08-23.01Q34.14-23.46 34.57-23.48L34.57-23.48L38.42-23.61L38.42-23.61Q38.87-23.59 38.91-23.11L38.91-23.11ZM56.74-25.74L56.74-25.74L56.74-25.74Q55.53-25.74 54.80-26.50L54.80-26.50L54.80-26.50Q54.08-27.27 54.08-28.47L54.08-28.47L54.08-28.47Q54.08-29.67 55.05-30.62L55.05-30.62L55.05-30.62Q56.02-31.56 57.23-31.56L57.23-31.56L57.23-31.56Q58.44-31.56 59.19-30.80L59.19-30.80L59.19-30.80Q59.94-30.04 59.94-28.84L59.94-28.84L59.94-28.84Q59.94-27.64 58.95-26.69L58.95-26.69L58.95-26.69Q57.95-25.74 56.74-25.74ZM58.91-23.11L58.91-23.11L56.37-0.59L56.37-0.59Q56.33-0.31 56.23-0.20L56.23-0.20L56.23-0.20Q56.13-0.08 55.86-0.06L55.86-0.06L51.93 0.08L51.93 0.08Q51.50 0.04 51.50-0.29L51.50-0.29L54.08-23.01L54.08-23.01Q54.16-23.44 54.57-23.48L54.57-23.48L58.38-23.61L58.38-23.61Q58.91-23.57 58.91-23.11ZM69.59-23.11L69.59-23.11L69.38-21.31L69.38-21.31Q72.19-23.79 74.77-23.79L74.77-23.79L74.77-23.79Q78.05-23.79 78.91-20.20L78.91-20.20L78.91-20.20Q79.14-19.22 79.14-18.35L79.14-18.35L79.14-18.35Q79.14-17.48 79.08-16.95L79.08-16.95L77.21-0.59L77.21-0.59Q77.13-0.10 76.72-0.06L76.72-0.06L72.77 0.08L72.77 0.08Q72.34 0.04 72.34-0.29L72.34-0.29L74.12-15.76L74.12-15.76Q74.18-16.27 74.18-16.68L74.18-16.68L74.18-16.68Q74.18-18.28 73.43-18.86L73.43-18.86L73.43-18.86Q72.68-19.43 71.52-19.43L71.52-19.43L71.52-19.43Q70.37-19.43 69.12-18.95L69.12-18.95L67.03-0.59L67.03-0.59Q66.95-0.10 66.54-0.06L66.54-0.06L62.60 0.08L62.60 0.08Q62.17 0.04 62.17-0.29L62.17-0.29L64.75-23.01L64.75-23.01Q64.82-23.44 65.23-23.48L65.23-23.48L69.06-23.61L69.06-23.61Q69.59-23.59 69.59-23.11ZM93.09 0.70L93.09 0.70L93.59-3.50L93.59-3.50Q92.62-1.70 91.51-0.74L91.51-0.74L91.51-0.74Q90.41 0.21 89.01 0.21L89.01 0.21L89.01 0.21Q87.62 0.21 86.68-0.24L86.68-0.24L86.68-0.24Q85.74-0.70 85.15-1.46L85.15-1.46L85.15-1.46Q84.55-2.21 84.18-3.26L84.18-3.26L84.18-3.26Q83.50-5.14 83.50-8.39L83.50-8.39L83.50-8.39Q83.50-11.64 83.94-13.91L83.94-13.91L83.94-13.91Q84.38-16.17 84.71-17.35L84.71-17.35L84.71-17.35Q85.04-18.54 85.60-19.79L85.60-19.79L85.60-19.79Q86.15-21.04 86.86-21.88L86.86-21.88L86.86-21.88Q88.46-23.79 90.90-23.79L90.90-23.79L90.90-23.79Q92.70-23.79 93.65-22.93L93.65-22.93L93.65-22.93Q94.61-22.07 95.27-20.37L95.27-20.37L95.47-22.99L95.47-22.99Q95.51-23.46 95.98-23.48L95.98-23.48L99.92-23.61L99.92-23.61Q100.33-23.55 100.33-23.20L100.33-23.20L97.68 0.49L97.68 0.49Q97.11 5.74 94.41 7.97L94.41 7.97L94.41 7.97Q92.29 9.75 88.69 9.75L88.69 9.75L88.69 9.75Q86.41 9.75 84.06 9.22L84.06 9.22L84.06 9.22Q83.73 9.16 83.61 9.05L83.61 9.05L83.61 9.05Q83.50 8.95 83.50 8.65L83.50 8.65L83.89 5.12L83.89 5.12Q83.95 4.59 84.32 4.59L84.32 4.59L84.32 4.59Q84.57 4.59 85.74 4.98L85.74 4.98L85.74 4.98Q86.91 5.37 88.36 5.37L88.36 5.37L88.36 5.37Q89.80 5.37 90.62 5.11L90.62 5.11L90.62 5.11Q91.43 4.84 91.91 4.22L91.91 4.22L91.91 4.22Q92.77 3.16 93.09 0.70ZM88.42-8.95L88.42-8.95L88.42-8.95Q88.42-4.28 90.92-4.28L90.92-4.28L90.92-4.28Q92.01-4.28 92.70-5.28L92.70-5.28L92.70-5.28Q93.38-6.29 93.88-9.32L93.88-9.32L93.88-9.32Q94.38-12.34 94.38-13.73L94.38-13.73L94.38-13.73Q94.38-15.12 94.36-15.49L94.36-15.49L94.36-15.49Q94.34-15.86 94.28-16.47L94.28-16.47L94.28-16.47Q94.22-17.09 94.06-17.51L94.06-17.51L94.06-17.51Q93.91-17.93 93.65-18.36L93.65-18.36L93.65-18.36Q93.14-19.20 92.01-19.20L92.01-19.20L92.01-19.20Q90.88-19.20 90.21-18.19L90.21-18.19L90.21-18.19Q89.55-17.19 89.18-15.51L89.18-15.51L89.18-15.51Q88.42-11.91 88.42-8.95ZM118.34-4.67L118.34-4.67L121.46-4.77L121.46-4.77Q121.86-4.77 121.86-4.24L121.86-4.24L121.41-0.49L121.41-0.49Q121.33-0.02 120.92 0.02L120.92 0.02L120.92 0.02Q118.96 0.21 117.11 0.21L117.11 0.21L117.11 0.21Q114.10 0.21 112.57-1.63L112.57-1.63L112.57-1.63Q111.04-3.48 111.04-6.21L111.04-6.21L111.04-6.21Q111.04-9.32 112.89-11.84L112.89-11.84L112.89-11.84Q114.49-13.98 117.05-16.05L117.05-16.05L117.05-16.05Q115.21-20.74 115.21-23.93L115.21-23.93L115.21-23.93Q115.21-27.11 117.07-29.24L117.07-29.24L117.07-29.24Q118.93-31.37 122.38-31.37L122.38-31.37L122.38-31.37Q125.06-31.37 126.78-29.62L126.78-29.62L126.78-29.62Q128.50-27.87 128.50-25.16L128.50-25.16L128.50-25.16Q128.50-22.29 126.68-19.92L126.68-19.92L126.68-19.92Q125.16-17.97 122.56-15.86L122.56-15.86L122.56-15.86Q124.12-12.40 126.46-8.06L126.46-8.06L126.46-8.06Q128.79-3.71 130.31-1.17L130.31-1.17L130.31-1.17Q130.49-0.88 130.49-0.61L130.49-0.61L130.49-0.61Q130.49-0.12 129.98-0.10L129.98-0.10L125.45 0.08L125.45 0.08Q125.10 0.06 124.92-0.29L124.92-0.29L124.92-0.29Q120.88-7.68 118.65-12.40L118.65-12.40L118.65-12.40Q116.02-9.53 116.02-7.10L116.02-7.10L116.02-7.10Q116.02-4.67 118.34-4.67ZM120.02-24.14L120.02-24.14L120.02-24.14Q120.02-22.38 121.05-19.53L121.05-19.53L121.05-19.53Q123.71-22.52 123.71-24.80L123.71-24.80L123.71-24.80Q123.71-25.74 123.26-26.33L123.26-26.33L123.26-26.33Q122.81-26.91 121.97-26.91L121.97-26.91L121.97-26.91Q120.02-26.91 120.02-24.14ZM143.95-29.84L143.95-29.84Q143.98-30.08 144.08-30.18L144.08-30.18L144.08-30.18Q144.18-30.27 146.05-30.45L146.05-30.45L146.05-30.45Q147.93-30.63 151.20-30.63L151.20-30.63L151.20-30.63Q154.47-30.63 156.23-28.74L156.23-28.74L156.23-28.74Q157.99-26.86 157.99-23.57L157.99-23.57L157.99-23.57Q157.99-17.38 156.60-9.32L156.60-9.32L156.60-9.32Q155.86-5.04 154.20-2.95L154.20-2.95L154.20-2.95Q152.68-1.04 149.43-0.43L149.43-0.43L149.43-0.43Q147.97-0.18 145.86-0.10L145.86-0.10L141.00 0.08L141.00 0.08Q140.57 0.06 140.57-0.29L140.57-0.29L143.95-29.84ZM148.42-26.07L148.42-26.07L146.04-4.80L146.04-4.80Q148.95-5.06 150.07-5.94L150.07-5.94L150.07-5.94Q151.19-6.82 151.64-9.28L151.64-9.28L151.64-9.28Q152.09-11.74 152.53-16.00L152.53-16.00L152.53-16.00Q152.97-20.25 152.97-22.97L152.97-22.97L152.97-22.97Q152.97-24.57 152.19-25.35L152.19-25.35L152.19-25.35Q151.41-26.13 150.07-26.13L150.07-26.13L150.07-26.13Q148.73-26.13 148.42-26.07ZM166.39-25.74L166.39-25.74L166.39-25.74Q165.18-25.74 164.45-26.50L164.45-26.50L164.45-26.50Q163.73-27.27 163.73-28.47L163.73-28.47L163.73-28.47Q163.73-29.67 164.70-30.62L164.70-30.62L164.70-30.62Q165.66-31.56 166.88-31.56L166.88-31.56L166.88-31.56Q168.09-31.56 168.84-30.80L168.84-30.80L168.84-30.80Q169.59-30.04 169.59-28.84L169.59-28.84L169.59-28.84Q169.59-27.64 168.59-26.69L168.59-26.69L168.59-26.69Q167.60-25.74 166.39-25.74ZM168.55-23.11L168.55-23.11L166.02-0.59L166.02-0.59Q165.98-0.31 165.88-0.20L165.88-0.20L165.88-0.20Q165.78-0.08 165.51-0.06L165.51-0.06L161.58 0.08L161.58 0.08Q161.15 0.04 161.15-0.29L161.15-0.29L163.73-23.01L163.73-23.01Q163.81-23.44 164.22-23.48L164.22-23.48L168.03-23.61L168.03-23.61Q168.55-23.57 168.55-23.11ZM182.50-19.06L182.50-19.06L180.29-19.16L180.29-19.16Q179.36-19.16 178.82-18.73L178.82-18.73L178.82-18.73Q178.28-18.30 178.28-17.49L178.28-17.49L178.28-17.49Q178.28-16.68 178.57-15.70L178.57-15.70L178.57-15.70Q178.96-14.39 179.93-12.66L179.93-12.66L179.93-12.66Q180.90-10.92 181.27-10.20L181.27-10.20L181.27-10.20Q182.40-7.95 182.40-5.92L182.40-5.92L182.40-5.92Q182.40-2.97 180.67-1.38L180.67-1.38L180.67-1.38Q178.95 0.21 175.43 0.21L175.43 0.21L175.43 0.21Q173.69 0.21 172.66 0.03L172.66 0.03L172.66 0.03Q171.62-0.16 171.51-0.26L171.51-0.26L171.51-0.26Q171.41-0.37 171.41-0.61L171.41-0.61L171.91-4.22L171.91-4.22Q171.95-4.71 172.26-4.71L172.26-4.71L172.26-4.71Q172.56-4.71 173.42-4.49L173.42-4.49L173.42-4.49Q174.28-4.28 174.92-4.28L174.92-4.28L174.92-4.28Q177.30-4.28 177.30-6.17L177.30-6.17L177.30-6.17Q177.30-7.52 176.73-8.69L176.73-8.69L176.73-8.69Q176.15-9.86 175.48-11.11L175.48-11.11L175.48-11.11Q174.80-12.36 174.43-13.12L174.43-13.12L174.43-13.12Q174.06-13.87 173.66-15.20L173.66-15.20L173.66-15.20Q173.26-16.52 173.26-17.70L173.26-17.70L173.26-17.70Q173.26-20.43 174.89-22.11L174.89-22.11L174.89-22.11Q176.52-23.79 179.65-23.79L179.65-23.79L179.65-23.79Q181.66-23.79 182.79-23.59L182.79-23.59L182.79-23.59Q183.28-23.52 183.28-23.09L183.28-23.09L182.85-19.61L182.85-19.61Q182.85-19.06 182.50-19.06ZM200.41-23.18L200.41-23.18L200.41-23.18Q200.84-23.03 200.84-22.44L200.84-22.44L200.39-18.91L200.39-18.91Q200.35-18.52 199.85-18.52L199.85-18.52L199.85-18.52Q199.36-18.52 198.91-18.71L198.91-18.71L198.91-18.71Q197.01-19.55 195.76-19.55L195.76-19.55L195.76-19.55Q194.51-19.55 193.77-18.52L193.77-18.52L193.77-18.52Q193.03-17.48 192.58-15.55L192.58-15.55L192.58-15.55Q191.74-11.93 191.74-8.95L191.74-8.95L191.74-8.95Q191.74-4.14 194.22-4.14L194.22-4.14L194.22-4.14Q196.02-4.14 197.13-4.60L197.13-4.60L197.13-4.60Q198.24-5.06 198.57-5.06L198.57-5.06L198.57-5.06Q199.26-5.06 199.26-4.47L199.26-4.47L198.85-1.04L198.85-1.04Q198.81-0.68 198.70-0.62L198.70-0.62L198.70-0.62Q198.59-0.55 198.42-0.47L198.42-0.47L198.42-0.47Q196.05 0.21 193.97 0.21L193.97 0.21L193.97 0.21Q191.89 0.21 190.69-0.31L190.69-0.31L190.69-0.31Q189.49-0.84 188.79-1.67L188.79-1.67L188.79-1.67Q188.09-2.50 187.66-3.67L187.66-3.67L187.66-3.67Q186.89-5.68 186.89-8.62L186.89-8.62L186.89-8.62Q186.89-11.56 187.28-13.74L187.28-13.74L187.28-13.74Q187.66-15.92 188.08-17.29L188.08-17.29L188.08-17.29Q188.50-18.65 189.20-19.91L189.20-19.91L189.20-19.91Q189.90-21.17 190.84-21.99L190.84-21.99L190.84-21.99Q192.89-23.79 196.27-23.79L196.27-23.79L196.27-23.79Q198.54-23.79 200.41-23.18ZM210.89 0.21L210.89 0.21L210.89 0.21Q207.42 0.21 205.81-1.87L205.81-1.87L205.81-1.87Q204.20-3.95 204.20-7.93L204.20-7.93L204.20-7.93Q204.20-9.79 204.61-12.77L204.61-12.77L204.61-12.77Q205.02-15.76 205.37-17.12L205.37-17.12L205.37-17.12Q205.72-18.48 206.37-19.78L206.37-19.78L206.37-19.78Q207.01-21.07 207.89-21.91L207.89-21.91L207.89-21.91Q209.82-23.79 213.13-23.79L213.13-23.79L213.13-23.79Q217.81-23.79 219.20-20.35L219.20-20.35L219.20-20.35Q219.94-18.52 219.94-15.91L219.94-15.91L219.94-15.91Q219.94-13.30 219.54-10.51L219.54-10.51L219.54-10.51Q219.14-7.71 218.79-6.38L218.79-6.38L218.79-6.38Q218.44-5.04 217.80-3.76L217.80-3.76L217.80-3.76Q217.17-2.48 216.29-1.64L216.29-1.64L216.29-1.64Q214.36 0.21 210.89 0.21ZM214.34-8.34L214.34-8.34L214.34-8.34Q214.55-9.38 214.89-12.22L214.89-12.22L214.89-12.22Q215.23-15.06 215.23-16.43L215.23-16.43L215.23-16.43Q215.23-19.75 212.83-19.75L212.83-19.75L212.83-19.75Q211.70-19.75 210.97-18.67L210.97-18.67L210.97-18.67Q210.23-17.60 209.79-15.10L209.79-15.10L209.79-15.10Q208.89-10.02 208.89-6.86L208.89-6.86L208.89-6.86Q208.89-3.69 211.27-3.69L211.27-3.69L211.27-3.69Q212.40-3.69 213.15-4.78L213.15-4.78L213.15-4.78Q213.91-5.86 214.34-8.34ZM229.20-23.11L230.72-6.39L235.20-23.01L235.20-23.01Q235.31-23.46 235.72-23.48L235.72-23.48L239.82-23.61L239.82-23.61Q240.31-23.57 240.31-23.11L240.31-23.11L232.36-0.59L232.36-0.59Q232.19-0.10 231.86-0.06L231.86-0.06L227.85 0.08L227.85 0.08Q227.48 0.06 227.42-0.29L227.42-0.29L224.38-23.01L224.38-23.01Q224.43-23.46 224.86-23.48L224.86-23.48L228.71-23.61L228.71-23.61Q229.16-23.59 229.20-23.11L229.20-23.11ZM243.08-3.66L243.08-3.66L243.08-3.66Q242.62-4.82 242.45-5.97L242.45-5.97L242.45-5.97Q242.29-7.11 242.29-9.10L242.29-9.10L242.29-9.10Q242.29-11.09 242.71-14.02L242.71-14.02L242.71-14.02Q244.14-23.79 251.58-23.79L251.58-23.79L251.58-23.79Q254.45-23.79 255.98-21.82L255.98-21.82L255.98-21.82Q257.50-19.84 257.50-16.70L257.50-16.70L257.50-16.70Q257.50-13.55 257.11-10.59L257.11-10.59L257.11-10.59Q257.05-10.06 256.50-10.04L256.50-10.04L246.86-9.71L246.86-9.71Q246.84-9.41 246.84-8.93L246.84-8.93L246.84-8.93Q246.84-6.72 247.61-5.43L247.61-5.43L247.61-5.43Q248.38-4.14 249.94-4.14L249.94-4.14L249.94-4.14Q251.50-4.14 252.84-4.60L252.84-4.60L252.84-4.60Q254.18-5.06 254.41-5.06L254.41-5.06L254.41-5.06Q254.65-5.06 254.82-4.90L254.82-4.90L254.82-4.90Q255-4.75 255-4.47L255-4.47L254.61-1.04L254.61-1.04Q254.59-0.74 254.50-0.65L254.50-0.65L254.50-0.65Q254.41-0.57 254.16-0.47L254.16-0.47L254.16-0.47Q251.80 0.21 249.61 0.21L249.61 0.21L249.61 0.21Q247.42 0.21 246.21-0.31L246.21-0.31L246.21-0.31Q245-0.84 244.27-1.67L244.27-1.67L244.27-1.67Q243.54-2.50 243.08-3.66ZM247.32-14.61L247.32-14.61L247.15-13.36L252.25-13.61L252.25-13.61Q252.58-13.63 252.68-13.73L252.68-13.73L252.68-13.73Q252.97-14.02 252.97-15.34L252.97-15.34L252.97-15.34Q252.97-16.66 252.88-17.20L252.88-17.20L252.88-17.20Q252.79-17.73 252.58-18.30L252.58-18.30L252.58-18.30Q252.13-19.55 251.04-19.55L251.04-19.55L251.04-19.55Q249.96-19.55 249.34-19.18L249.34-19.18L249.34-19.18Q247.95-18.32 247.32-14.61ZM274.39-18.63L274.39-18.63L272.30-18.85L272.30-18.85Q269.77-18.85 268.05-17.83L268.05-17.83L266.11-0.61L266.11-0.61Q266.04-0.12 265.63-0.08L265.63-0.08L261.68 0.08L261.68 0.08Q261.25 0.04 261.25-0.29L261.25-0.29L263.83-23.01L263.83-23.01Q263.91-23.44 264.32-23.48L264.32-23.48L268.13-23.61L268.13-23.61Q268.65-23.59 268.65-23.11L268.65-23.11L268.42-21.09L268.42-21.09Q269.67-22.36 270.84-23.08L270.84-23.08L270.84-23.08Q272.01-23.79 273.19-23.79L273.19-23.79L273.19-23.79Q274.38-23.79 275-23.69L275-23.69L275-23.69Q275.41-23.61 275.41-23.14L275.41-23.14L275.41-23.14Q275.41-21.80 274.96-19.14L274.96-19.14L274.96-19.14Q274.86-18.63 274.39-18.63ZM293.63-23.11L293.63-23.11L282.36 8.87L282.36 8.87Q282.21 9.36 281.80 9.38L281.80 9.38L277.87 9.51L277.87 9.51Q277.44 9.49 277.44 9.12L277.44 9.12L280.80-0.35L277.75-23.01L277.75-23.01Q277.75-23.46 278.24-23.48L278.24-23.48L282.09-23.61L282.09-23.61Q282.54-23.59 282.58-23.11L282.58-23.11L284.06-6.68L288.81-23.01L288.81-23.01Q288.93-23.46 289.32-23.48L289.32-23.48L293.14-23.61L293.14-23.61Q293.63-23.57 293.63-23.11Z" fill="url(#editing-outline-gradient)"></path></g></g><style>text {
  font-size: 64px;
  font-family: Arial Black;
  dominant-baseline: central;
  text-anchor: middle;
}</style></svg>